<?xml version="1.0" encoding="utf-8"?>
<!-- Generator: Adobe Illustrator 21.1.0, SVG Export Plug-In . SVG Version: 6.00 Build 0)  -->
<svg version="1.1" id="Layer_1" xmlns="http://www.w3.org/2000/svg" xmlns:xlink="http://www.w3.org/1999/xlink" x="0px" y="0px"
	 viewBox="0 0 18.1 18.6" style="enable-background:new 0 0 18.1 18.6;" xml:space="preserve">
<style type="text/css">
	.st0{fill:#8F8F8F;}
</style>
<title>cancel</title>
<desc>Created with Sketch.</desc>
<g id="Investing-Criteria">
	<g id="cancel">
		<path id="Shape" class="st0" d="M8,2.5c2,0,4,0.8,5.4,2.3s2.3,3.5,2.3,5.6c0,4.4-3.5,7.9-7.7,7.9c-2,0-4-0.8-5.4-2.3
			s-2.3-3.5-2.3-5.6s0.8-4.1,2.3-5.6S6,2.5,8,2.5z M8,4.1c-3.4,0-6.2,2.8-6.2,6.3c0,1.5,0.5,2.8,1.3,3.9l8.7-8.9
			C10.7,4.6,9.4,4.1,8,4.1z M8,16.7c3.4,0,6.2-2.8,6.2-6.3c0-1.5-0.5-2.8-1.3-3.9l-8.7,8.9C5.3,16.2,6.6,16.7,8,16.7z"/>
	</g>
</g>
</svg>
