<?xml version="1.0" encoding="UTF-8"?>
<svg width="18px" height="24px" viewBox="0 0 18 24" version="1.1" xmlns="http://www.w3.org/2000/svg" xmlns:xlink="http://www.w3.org/1999/xlink">
    <!-- Generator: Sketch 50.2 (55047) - http://www.bohemiancoding.com/sketch -->
    <title>002-document</title>
    <desc>Created with Sketch.</desc>
    <defs></defs>
    <g id="Reports" stroke="none" stroke-width="1" fill="none" fill-rule="evenodd">
        <g transform="translate(-412.000000, -20.000000)" fill="#24d7d1" fill-rule="nonzero" id="002-document">
            <g transform="translate(412.000000, 20.000000)">
                <path d="M8.76923077,9.99998438 C8.76923077,9 8.6265024,9 8.28203606,9 C8.11172115,9 7.79484135,9 7.79484135,10.0478438 C7.79484135,10.4389687 7.99895433,10.9570312 8.38146635,11.5615312 C8.63221154,10.7382656 8.76923077,10.2109219 8.76923077,9.99998438 Z" id="Shape"></path>
                <path d="M8.7454351,13.6513594 C8.60033173,14.1015469 8.43759856,14.6015625 8.25682452,15.1582031 C8.22827885,15.2470781 8.19877404,15.3349688 8.1683101,15.421875 C8.7791875,15.223125 9.41815385,15.056625 10.0185264,14.922375 C9.71690144,14.6582344 9.49040865,14.4472969 9.3990625,14.3535469 C9.16553606,14.1137813 8.94762981,13.879875 8.7454351,13.6513594 Z" id="Shape"></path>
                <path d="M3.89742067,18.8393437 C3.91788221,18.8652187 4.10628365,18.9999844 4.38461538,18.9999844 C4.66102885,18.9999844 5.38467308,18.4950937 6.11640144,17.4062344 C6.05122596,17.4379687 5.98700962,17.4687188 5.92370673,17.4995156 C4.9274399,17.983875 3.89742067,18.484875 3.89742067,18.8393437 Z" id="Shape"></path>
                <path d="M17.3951394,5.14589062 L12.5245168,0.14709375 C12.4363221,0.056296875 12.3144207,0 12.1795024,0 L1.94873317,0 C0.874456731,0 0,0.896953125 0,2.00001563 L0,22.0000312 C0,23.1030469 0.874456731,24 1.94873317,24 L15.589774,24 C16.6640048,24 17.5384615,23.1030469 17.5384615,21.9999844 L17.5384615,5.49998438 C17.5384615,5.36151563 17.4836082,5.23640625 17.3951394,5.14589062 Z M13.1538462,17.0000156 C12.7175769,17.0000156 11.8169495,16.3843125 11.0015024,15.7407187 C9.98386058,15.9355312 8.69455529,16.2465937 7.65736538,16.6665 C6.65826683,18.7582969 5.29044952,20.0000156 4.38461538,20.0000156 C3.6819351,20.0000156 2.92307692,19.5561562 2.92307692,18.8393906 C2.92307692,17.8520625 3.95072115,17.3520937 5.50648317,16.5962344 C5.84761538,16.4302031 6.215375,16.2515156 6.60263702,16.0527656 C6.71015144,15.9975937 6.8215024,15.9443437 6.93614183,15.892125 C7.07695192,15.568875 7.21018029,15.2192812 7.33294952,14.8418437 C7.58794231,14.0552344 7.81489183,13.3574531 8.00804327,12.7524844 C7.21876683,11.6997656 6.82054327,10.794 6.82054327,10.0478906 C6.82054327,8.35551562 7.61552885,8.00001562 8.28208173,8.00001562 C9.15937019,8.00001562 9.74362019,8.34032812 9.74362019,10.0000312 C9.74362019,10.3906406 9.54713462,11.1235781 9.09894471,12.5449687 C9.38631971,12.8965312 9.71694712,13.2656719 10.0880409,13.6465312 C10.3734976,13.9395 10.8021394,14.3140312 11.2531611,14.67825 C11.9430072,14.5596094 12.4701659,14.5000312 12.6666514,14.5000312 C13.2994063,14.5000312 14.6153846,14.5000312 14.6153846,15.6821719 C14.6153846,16.2832031 14.3618077,17.0000156 13.1538462,17.0000156 Z M13.6410409,5.00001562 C13.1034231,5.00001562 12.6666971,4.55128125 12.6666971,4.00003125 L12.6666971,1.70704687 L15.8752308,5.00001562 L13.6410409,5.00001562 Z" id="Shape"></path>
                <path d="M12.6666514,15.5000156 C12.6095601,15.5000156 12.5082115,15.5078437 12.3707356,15.5234531 C12.7494567,15.7881094 13.0562885,15.9736406 13.1890601,16.0029375 C13.6410409,15.9999844 13.6410409,15.90675 13.6410409,15.682125 C13.5906178,15.57225 13.3865048,15.5000156 12.6666514,15.5000156 Z" id="Shape"></path>
            </g>
        </g>
    </g>
</svg>