<?xml version="1.0" standalone="no"?>
<!DOCTYPE svg PUBLIC "-//W3C//DTD SVG 20010904//EN"
 "http://www.w3.org/TR/2001/REC-SVG-20010904/DTD/svg10.dtd">
<svg version="1.0" xmlns="http://www.w3.org/2000/svg"
 width="512.000000pt" height="512.000000pt" viewBox="0 0 512.000000 512.000000"
 preserveAspectRatio="xMidYMid meet">
<metadata>
Created by potrace 1.11, written by Peter Selinger 2001-2013
</metadata>
<g transform="translate(0.000000,512.000000) scale(0.100000,-0.100000)"
fill="#000000" stroke="none">
<path d="M0 2560 l0 -2560 2560 0 2560 0 0 2560 0 2560 -2560 0 -2560 0 0
-2560z m3201 1546 l504 -244 3 -156 c1 -86 1 -156 -1 -156 -2 0 -208 99 -458
221 -250 121 -475 229 -500 240 l-46 20 -644 -316 c-354 -174 -650 -319 -657
-322 -10 -4 -12 29 -10 161 l3 167 640 314 c352 173 645 315 651 315 6 0 238
-110 515 -244z m49 -396 c283 -132 518 -244 521 -248 4 -4 14 -464 23 -1022 9
-558 19 -1088 22 -1177 l6 -163 134 0 134 0 0 -164 0 -164 -1372 -7 c-755 -3
-1443 -5 -1528 -3 l-155 3 -3 156 -2 156 31 7 c17 3 55 6 83 6 91 0 91 1 88
80 l-4 68 54 6 c81 10 1280 96 1327 96 l41 0 0 -120 0 -120 30 0 30 0 0 1431
c0 1141 3 1430 13 1426 6 -3 244 -114 527 -247z m-600 83 l0 -128 -603 -264
c-331 -146 -650 -286 -709 -312 l-108 -48 0 92 0 92 708 347 c389 191 708 347
710 347 1 1 2 -56 2 -126z m0 -365 l0 -123 -693 -267 c-380 -147 -700 -270
-710 -274 -16 -6 -18 1 -15 81 l3 88 700 308 c385 169 703 308 708 308 4 1 7
-54 7 -121z m-2 -359 l-3 -122 -685 -232 c-377 -128 -695 -236 -707 -239 -23
-7 -23 -6 -23 82 l0 90 68 26 c37 14 351 136 697 270 347 135 636 245 643 245
10 1 12 -27 10 -120z m2 -363 l0 -134 -32 -11 c-30 -9 -1297 -342 -1361 -357
l-28 -6 3 82 3 82 700 238 c385 131 703 239 708 239 4 1 7 -59 7 -133z m0
-380 l0 -134 -27 -6 c-83 -17 -1382 -266 -1387 -266 -4 0 -5 39 -4 86 l3 87
690 182 c380 101 698 183 708 184 15 1 17 -12 17 -133z m0 -360 l0 -124 -27
-6 c-25 -5 -1316 -193 -1368 -199 -18 -2 -20 5 -23 86 -2 64 1 89 10 92 10 4
1366 269 1401 274 4 1 7 -55 7 -123z m-5 -514 c-7 -7 -1397 -110 -1407 -105
-7 4 -12 183 -5 183 1 0 319 47 707 103 l705 103 3 -139 c1 -77 0 -142 -3
-145z"/>
<path d="M2882 3394 l3 -286 385 -143 385 -144 3 247 c2 189 -1 249 -10 257
-11 10 -359 170 -706 326 l-62 28 2 -285z"/>
<path d="M2872 2688 l3 -133 35 -11 c19 -6 50 -15 68 -19 l33 -7 -3 127 -3
127 -65 24 c-36 13 -66 24 -68 24 -1 0 -1 -60 0 -132z"/>
<path d="M3122 2603 l3 -127 50 -13 c79 -20 75 -26 75 100 0 61 -4 117 -8 123
-6 10 -95 44 -114 44 -5 0 -7 -57 -6 -127z"/>
<path d="M3340 2567 c0 -145 3 -153 63 -171 28 -8 54 -13 59 -10 9 6 9 130 0
193 -7 46 -7 46 -99 75 -23 7 -23 6 -23 -87z"/>
<path d="M3562 2472 c3 -128 3 -128 81 -147 l27 -7 0 115 0 114 -55 21 -56 20
3 -116z"/>
<path d="M2872 2278 l3 -132 40 -12 c22 -6 53 -14 68 -18 l28 -7 -3 132 -3
132 -50 18 c-90 32 -86 37 -83 -113z"/>
<path d="M3120 2213 l0 -129 65 -16 65 -15 0 124 0 124 -36 15 c-19 8 -48 17
-65 21 l-29 6 0 -130z"/>
<path d="M3350 2155 l0 -124 43 -11 c23 -6 50 -14 60 -16 16 -5 17 4 15 118
l-3 123 -50 17 c-27 9 -53 17 -57 17 -5 1 -8 -55 -8 -124z"/>
<path d="M3560 2113 c0 -57 4 -112 10 -122 5 -10 26 -22 45 -25 20 -4 44 -10
52 -13 14 -6 16 7 10 111 -3 65 -8 120 -10 123 -3 2 -28 10 -56 18 l-51 13 0
-105z"/>
<path d="M2870 1963 c0 -21 -3 -74 -6 -119 -8 -103 0 -119 63 -128 26 -4 56
-9 66 -12 16 -5 17 4 15 132 l-3 138 -50 13 c-79 20 -85 18 -85 -24z"/>
<path d="M3120 1816 l0 -134 50 -11 c86 -19 81 -27 78 116 l-3 128 -35 11
c-19 6 -47 14 -62 18 l-28 6 0 -134z"/>
<path d="M3350 1766 c0 -137 -4 -130 74 -141 l46 -7 0 125 0 125 -44 11 c-80
20 -76 26 -76 -113z"/>
<path d="M3570 1547 c0 -166 4 -307 8 -314 4 -6 31 -15 60 -19 l53 -7 -7 304
c-4 167 -8 305 -9 307 -2 2 -26 9 -54 17 l-51 13 0 -301z"/>
<path d="M2865 1592 c-9 -9 -5 -271 3 -276 5 -3 39 -8 76 -12 l67 -7 -3 139
-3 139 -67 11 c-38 6 -70 8 -73 6z"/>
<path d="M3120 1416 c0 -123 2 -136 18 -137 9 0 38 -4 65 -8 l47 -8 0 133 c0
147 5 139 -80 150 l-50 7 0 -137z"/>
<path d="M3350 1387 c0 -75 4 -128 10 -132 6 -4 35 -9 65 -12 l55 -6 0 120 c0
86 -4 124 -13 131 -7 6 -36 14 -65 18 l-52 7 0 -126z"/>
</g>
</svg>
