<?xml version="1.0" encoding="utf-8"?>
<!-- Generator: Adobe Illustrator 16.0.3, SVG Export Plug-In . SVG Version: 6.00 Build 0)  -->
<!DOCTYPE svg PUBLIC "-//W3C//DTD SVG 1.1//EN" "http://www.w3.org/Graphics/SVG/1.1/DTD/svg11.dtd">
<svg version="1.1" id="Layer_1" xmlns="http://www.w3.org/2000/svg" xmlns:xlink="http://www.w3.org/1999/xlink" x="0px" y="0px"
	 width="88.5px" height="84px" viewBox="630.5 -51 88.5 84" enable-background="new 630.5 -51 88.5 84" xml:space="preserve">
<path fill="#898989" d="M662.743,8.256c-0.382-1.482-0.803-2.956-1.141-4.448c-1.176-5.21-1.503-10.486-1.191-15.81
	c0.299-5.247,1.325-10.346,3.165-15.269c1.798-4.817,4.283-9.228,7.898-12.938c1.927-1.982,4.087-3.662,6.612-4.839
	c0.117-0.057,0.129,0.003,0.102,0.1c-4.252,3.09-7.146,7.247-9.326,11.947c-2.193,4.739-3.465,9.736-4.07,14.917
	c-0.377,3.233-0.515,6.476-0.322,9.727c0.295,4.944,1.152,9.784,2.781,14.474c0.023,0.069,0.078,0.128,0.117,0.195
	c0.374,0.476,0.495,1.068,0.704,1.617c0.279,0.726,0.712,1.396,0.818,2.187c2.25,4.92,5.282,9.233,9.837,12.293
	c6.089,4.084,13.025,3.915,19.001-0.418c3.819-2.774,6.524-6.463,8.638-10.629c2.135-4.203,3.457-8.672,4.283-13.3
	c0.213-1.168,0.57-2.307,0.708-3.489c0.287,0.142,0.118,0.373,0.114,0.576c-0.555,8.779-2.805,17.018-7.827,24.347
	c-2.683,3.917-6.026,7.154-10.438,9.063c-6.475,2.804-12.591,1.86-18.274-2.147c-4.261-3.012-7.229-7.112-9.542-11.727
	c-0.448-0.891-0.85-1.802-1.274-2.705c-0.235-0.192-0.295-0.482-0.409-0.745c-0.322-0.772-0.574-1.577-0.869-2.362
	C662.759,8.673,662.699,8.473,662.743,8.256"/>
<path fill="#898989" d="M668.891,10.115c-0.621-1.223-1.16-2.478-1.522-3.803c4.803-2.889,8.141-7.064,10.49-12.073
	c2.159-4.602,3.229-9.455,3.091-14.539c-0.137-4.95-1.337-9.591-4.317-13.656c-0.366-0.498-0.775-0.97-1.217-1.518
	c0.354,0.035,0.504,0.248,0.682,0.399c3.41,2.956,5.459,6.733,6.596,11.042c1.223,4.633,1.246,9.32,0.212,13.969
	c-1.438,6.47-4.317,12.191-9.263,16.744C672.194,8.011,670.609,9.151,668.891,10.115"/>
<path fill="#898989" d="M662.743,8.256c0.456,1.241,0.916,2.484,1.372,3.722c-6.474,1.511-11.995-0.178-16.472-5.063
	c-3.313-3.611-4.936-8.012-5.581-12.817c-0.437-3.243-0.283-6.466,0.263-9.681c0.291,0.092,0.122,0.299,0.114,0.462
	c0.153,4.527,0.239,9.062,2.05,13.338c1.71,4.043,4.268,7.327,8.318,9.239c3.06,1.443,6.258,1.673,9.537,0.881
	C662.479,8.306,662.609,8.282,662.743,8.256"/>
</svg>
