<?xml version="1.0" encoding="utf-8"?>
<!-- Generator: Adobe Illustrator 16.0.3, SVG Export Plug-In . SVG Version: 6.00 Build 0)  -->
<!DOCTYPE svg PUBLIC "-//W3C//DTD SVG 1.1//EN" "http://www.w3.org/Graphics/SVG/1.1/DTD/svg11.dtd">
<svg version="1.1" id="Layer_1" xmlns="http://www.w3.org/2000/svg" xmlns:xlink="http://www.w3.org/1999/xlink" x="0px" y="0px"
	 width="88.5px" height="84px" viewBox="490.5 76.5 88.5 84" enable-background="new 490.5 76.5 88.5 84" xml:space="preserve">
<path d="M522.743,135.756c-0.382-1.482-0.803-2.955-1.141-4.448c-1.176-5.21-1.503-10.485-1.191-15.81
	c0.299-5.246,1.325-10.346,3.165-15.269c1.798-4.817,4.283-9.228,7.898-12.938c1.927-1.982,4.087-3.662,6.612-4.84
	c0.117-0.057,0.129,0.004,0.102,0.101c-4.252,3.09-7.146,7.247-9.326,11.947c-2.193,4.739-3.465,9.736-4.07,14.917
	c-0.377,3.232-0.515,6.476-0.322,9.727c0.295,4.943,1.152,9.783,2.781,14.474c0.023,0.069,0.078,0.128,0.117,0.194
	c0.374,0.477,0.495,1.068,0.704,1.617c0.279,0.726,0.712,1.396,0.818,2.188c2.25,4.92,5.282,9.232,9.837,12.293
	c6.089,4.084,13.025,3.915,19.001-0.418c3.819-2.774,6.524-6.463,8.638-10.629c2.135-4.203,3.457-8.672,4.283-13.3
	c0.213-1.168,0.57-2.308,0.708-3.489c0.287,0.143,0.118,0.373,0.114,0.576c-0.555,8.779-2.805,17.018-7.827,24.347
	c-2.683,3.917-6.026,7.154-10.438,9.063c-6.475,2.804-12.591,1.86-18.274-2.147c-4.261-3.012-7.229-7.111-9.542-11.727
	c-0.448-0.891-0.85-1.803-1.274-2.705c-0.235-0.192-0.295-0.482-0.409-0.745c-0.322-0.772-0.574-1.577-0.869-2.362
	C522.759,136.173,522.699,135.973,522.743,135.756"/>
<path d="M528.891,137.615c-0.621-1.224-1.16-2.479-1.522-3.804c4.803-2.89,8.141-7.063,10.49-12.073
	c2.159-4.602,3.229-9.455,3.091-14.539c-0.137-4.95-1.337-9.592-4.317-13.656c-0.366-0.498-0.775-0.97-1.217-1.518
	c0.354,0.035,0.504,0.248,0.682,0.398c3.41,2.956,5.459,6.734,6.596,11.043c1.223,4.633,1.246,9.32,0.212,13.969
	c-1.438,6.47-4.317,12.191-9.263,16.744C532.194,135.511,530.609,136.65,528.891,137.615"/>
<path d="M522.743,135.756c0.456,1.242,0.916,2.484,1.372,3.723c-6.474,1.512-11.995-0.178-16.472-5.063
	c-3.313-3.611-4.936-8.013-5.581-12.817c-0.437-3.243-0.283-6.466,0.263-9.681c0.291,0.092,0.122,0.299,0.114,0.461
	c0.153,4.527,0.239,9.063,2.05,13.338c1.71,4.043,4.268,7.328,8.318,9.239c3.06,1.442,6.258,1.673,9.537,0.881
	C522.479,135.806,522.609,135.781,522.743,135.756"/>
</svg>
