<?xml version="1.0" encoding="UTF-8"?>
<svg width="278px" height="353px" viewBox="0 0 278 353" version="1.1" xmlns="http://www.w3.org/2000/svg" xmlns:xlink="http://www.w3.org/1999/xlink">
    <!-- Generator: Sketch 50 (54983) - http://www.bohemiancoding.com/sketch -->
    <title>004-padlock</title>
    <desc>Created with Sketch.</desc>
    <defs>
        <rect id="path-1" x="0" y="0" width="413" height="448"></rect>
    </defs>
    <g id="Unauthorized-Page" stroke="none" stroke-width="1" fill="none" fill-rule="evenodd">
        <g id="unauthorized-" transform="translate(-845.000000, -297.000000)">
            <g id="004-padlock" transform="translate(769.000000, 202.000000)">
                <mask id="mask-2" fill="white">
                    <use xlink:href="#path-1"></use>
                </mask>
                <g id="Mask"></g>
                <g mask="url(#mask-2)" fill="#000000" fill-opacity="0.18" fill-rule="nonzero" id="Shape">
                    <g transform="translate(76.000000, 95.000000)">
                        <path d="M139.499621,207 C118.270653,207 101,224.041091 101,244.987883 C101,255.376422 105.375818,265.421043 113.015883,272.569285 L113.015883,306.867536 C113.015883,321.276914 124.896891,333 139.500379,333 C154.103866,333 165.984875,321.276914 165.984875,306.867536 L165.984875,272.569285 C173.621151,265.425529 178,255.378665 178,244.987883 C177.998485,224.041091 160.727074,207 139.499621,207 Z M153.121865,259.249227 C149.446177,262.666716 147.338208,267.443425 147.338208,272.355458 L147.338208,306.867536 C147.338208,311.132855 143.822399,314.601932 139.499621,314.601932 C135.177601,314.601932 131.661035,311.132855 131.661035,306.867536 L131.661035,272.355458 C131.661035,267.444173 129.553065,262.668211 125.879651,259.25147 C121.858445,255.510998 119.644394,250.445698 119.644394,244.987883 C119.644394,234.186644 128.551362,225.398068 139.498106,225.398068 C150.444849,225.398068 159.351817,234.186644 159.351817,244.987883 C159.353332,250.445698 157.139282,255.510998 153.121865,259.249227 Z"></path>
                        <path d="M250.39965,156.997393 L222.801544,156.997393 L222.801544,83.8352731 C222.801544,37.6081301 185.207461,0 139.000748,0 C92.7925386,0 55.1992038,37.6081301 55.1992038,83.8352731 L55.1992038,156.997393 L27.6003497,156.997393 C12.3813115,156.997393 0,169.384325 0,184.608605 L0,355.388788 C0,370.613816 12.3813115,383 27.6003497,383 L250.39965,383 C265.618688,383 278,370.613816 278,355.388788 L278,184.609353 C278,169.384325 265.618688,156.997393 250.39965,156.997393 Z M73.5984399,83.8352731 C73.5984399,47.759146 102.937318,18.4079735 139,18.4079735 C175.061934,18.4079735 204.400812,47.759146 204.400812,83.8352731 L204.400812,156.997393 L73.5984399,156.997393 L73.5984399,83.8352731 Z M259.600016,355.389536 C259.600016,360.464296 255.472414,364.593523 250.39965,364.593523 L27.6003497,364.593523 C22.5275862,364.593523 18.3999839,360.465044 18.3999839,355.389536 L18.3999839,184.609353 C18.3999839,179.534593 22.5275862,175.405366 27.6003497,175.405366 L250.39965,175.405366 C255.472414,175.405366 259.600016,179.533845 259.600016,184.609353 L259.600016,355.389536 Z"></path>
                    </g>
                </g>
            </g>
        </g>
    </g>
</svg>